<svg xmlns="http://www.w3.org/2000/svg" width="1920" height="1080.001" viewBox="0 0 1920 1080.001">
  <path id="제외_1" data-name="제외 1" d="M1920,1080H0V0H1920V1080ZM960,160a386.123,386.123,0,0,0-38.853,1.962A379.433,379.433,0,0,0,581.961,501.147a385.693,385.693,0,0,0,0,77.706A379.432,379.432,0,0,0,921.148,918.038a385.69,385.69,0,0,0,77.705,0,379.431,379.431,0,0,0,339.185-339.185,385.693,385.693,0,0,0,0-77.706A379.432,379.432,0,0,0,998.853,161.962,386.116,386.116,0,0,0,960,160Z" fill="#151721"/>
</svg>
